<svg xmlns="http://www.w3.org/2000/svg" xmlns:xlink="http://www.w3.org/1999/xlink" width="702" height="494"><style><![CDATA[.B{fill:#333242}.C{fill:#fff}.D{fill:#0d5bd9}.E{fill:#ffcab8}.F{fill:#ffc3ab}.G{fill:#0a429f}.H{fill:#42445d}.I{fill:#ffb725}.J{fill:#fd4b1b}.K{fill:#c3391c}.L{fill:#7bc3f4}.M{fill:#d0ddfd}]]></style><defs><path d="M.265.433c31.583 54.6 38.513 56.102 60.81 75.035h0c22.324 18.972 49.04 27.248 61.567 40.8h0c40.388 43.682 24.718 89.654 21.41 96.012h0c-.014.03 6.11 10.462 6.11 10.462h0c44.27-101.178-19.793-175.9-19.498-172.224h0c.3 3.72-8.035 14.616-8.035 14.616h0s-3.15-18.158-5.587-23.076h0c-2.398-4.838-42.47-17.885-43.726-18.277h0c7.312 12.856 6.818 22.262 6.818 22.262h0s-10.343-23.37-32.04-26.068h0C26.408 17.296.172.296.172.296h0s.025.04.094.137" id="A"/><linearGradient x1="-0.000438510654%" y1="50.0000819%" x2="99.9996759%" y2="50.0000819%" id="B"><stop stop-color="#fb6b14" offset="0%"/><stop stop-color="#fdb521" offset="100%"/></linearGradient><path d="M.608 2.466C17.2 3.852 36.54 13.946 43.24 23.8h0c6.088 8.946 10 16.938 12.337 24.336h9.853c.666-16.675-5.947-30.834-20.15-39.88h0C35.474 2.012 25.276.252 16.906.252h0C9.58.252 3.654 1.598.608 2.466" id="C"/><linearGradient x1="31.0342882%" y1="39.0641785%" x2="85.1447595%" y2="56.9873697%" id="D"><stop stop-color="#fb6b14" offset="0%"/><stop stop-color="#fdb521" offset="100%"/></linearGradient><path d="M74.37 12.988c-13.622 1.692-20.113 16.37-20.113 16.37h0s-.313-5.908 4.284-13.982h0c-.796.245-25.956 8.442-27.46 11.477h0c-1.53 3.09-3.514 14.5-3.514 14.5h0s-5.227-6.84-5.04-9.173h0c.184-2.315-40.04 44.608-12.244 108.14h0l3.838-6.566c-2.077-3.996-11.92-32.864 13.446-60.293h0c7.862-8.507 24.638-13.705 38.653-25.618h0c14-11.89 18.356-12.838 38.185-47.117h0c.047-.065.058-.086.058-.086h0s-16.47 10.678-30.092 12.36" id="E"/><linearGradient x1="31.7675904%" y1="59.5364015%" x2="60.7044289%" y2="13.7889544%" id="F"><stop stop-color="#fb6b14" offset="0%"/><stop stop-color="#fdb521" offset="100%"/></linearGradient><path d="M13.68 4.568C-.348 13.504-2.63 30.377 6.23 48.863h0c.03.065.065.13.094.19h0s26.068-6.57 38.4-30.5h0c11.578-22.468 38.624-2.25 40.302 10.714h6.29C88.838 22.946 85.238-3.197 41.73.936h0c-1.2.112-3.038-.133-5.32-.382h0c-1.9-.205-4.086-.4-6.476-.4h0c-4.925 0-10.67.875-16.25 4.424" id="G"/><linearGradient x1="46.1089742%" y1="51.7350821%" x2="17.0494987%" y2="47.3295709%" id="H"><stop stop-color="#fb6b14" offset="0%"/><stop stop-color="#fdb521" offset="100%"/></linearGradient><path d="M15.904.047C8.074 2.185 3.937 13.993.33 20.974h0s2.423 5.022 11.4 5.66h0s9.238-14.75 9.3-18.48h0c.05-3.578-3.258-8.136-4.918-8.136h0a.79.79 0 0 0-.209.029" id="I"/><linearGradient x1="137.390257%" y1="133.595791%" x2="42.7035055%" y2="40.037173%" id="J"><stop stop-color="#fb6b14" offset="0%"/><stop stop-color="#fdb521" offset="100%"/></linearGradient><path d="M11.42 5.112c-2.423 1.645-.202 29.3-2.48 33.602h0L.883 53.838c9.475 5.58 45.878 5.566 45.878 5.566h0s1.98-6.538 3.532-17.366h0c1.8-12.56 2.412-39.9 1.714-40.1h0C47.56.77 42.632.306 37.772.306h0C25.896.306 14.43 3.07 11.42 5.112" id="K"/><linearGradient x1="69.7926059%" y1="64.3392694%" x2="22.1033891%" y2="22.2048245%" id="L"><stop stop-color="#fb6b14" offset="0%"/><stop stop-color="#fdb521" offset="100%"/></linearGradient><path d="M5.876.398c-7.222 1.436-7.93 10.487 4.58 29.012h0s7.708-.536 11.822-4.406h0S14.444.33 6.593.326h0a3.72 3.72 0 0 0-.716.072" id="M"/><linearGradient x1="51.8697049%" y1="57.6999493%" x2="-30.8004325%" y2="-27.9139349%" id="N"><stop stop-color="#fb6b14" offset="0%"/><stop stop-color="#fdb521" offset="100%"/></linearGradient><path d="M110.146.394v.014c-3.092-.036-6.217.194-9.342.73h0c-17.665 3.017-32.19 14.746-38.862 31.378h0L.673 185.344h65.214l71.42-160.063c1.606-2.444 38.095-14.198 38.095-14.198h0V.394h-65.257z" id="O"/><linearGradient x1="50.0011354%" y1="70.5977039%" x2="50.0011354%" y2="23.557987%" id="P"><stop stop-color="#fb6b14" offset="0%"/><stop stop-color="#fdb521" offset="100%"/></linearGradient><path d="M62.514.085v.018c-2.8-.043-5.612.18-8.435.706h0c-14.332 2.668-26.07 12.362-31.4 25.927h0L.767 82.514c4.093 5.04 11.85 35.176 45.94 35.176h0c13.176 0 43.805-90.907 43.805-90.907h0L127.07.085H62.514z" id="Q"/><linearGradient x1="50.0002748%" y1="76.7648926%" x2="50.0002748%" y2="5.97436145%" id="R"><stop stop-color="#fb6b14" offset="0%"/><stop stop-color="#fdb521" offset="100%"/></linearGradient><path d="M24.847.34L.497 129.083c5.076-4.655 21.424-19.07 62.924 20.344h0L93.096.34h-68.25z" id="S"/><linearGradient x1="49.9990234%" y1="67.4938655%" x2="49.9990234%" y2="-25.9058187%" id="T"><stop stop-color="#fb6b14" offset="0%"/><stop stop-color="#fdb521" offset="100%"/></linearGradient><path d="M41.448.24v.014c-1.177.03-2.365.108-3.557.274h0c-11.844 1.634-21.305 9.785-24.696 21.25h0L.678 64.177c4.705 2.902 9.457 5.728 14.537 7.924h0c.536.227 31.76 29.963 32.162 30.34h0l9.634-6.545L107.897.24h-66.45z" id="U"/><linearGradient x1="49.9999681%" y1="70.3743094%" x2="49.9999681%" y2="5.18442671%" id="V"><stop stop-color="#fb6b14" offset="0%"/><stop stop-color="#fdb521" offset="100%"/></linearGradient><path id="W" d="M.03 49.326h121.74L67.228.9z"/><linearGradient x1="50.0001233%" y1="305.794336%" x2="50.0001233%" y2="18.1923147%" id="X"><stop stop-color="#fb6b14" offset="0%"/><stop stop-color="#fdb521" offset="100%"/></linearGradient><path d="M2.88.96C.148 2.613-1.966 12.045 3.888 19.504h0c2.178 2.772 6.732 7.002 9.18 6.998h0c2.552-.004-3.64-7.96-3.107-13.104h0c.133-1.274 1.008-4 1.274-5.252h0C12.157 3.798 9.288.11 5.778.11h0c-.94 0-1.926.263-2.898.85" id="Y"/><linearGradient x1="0.000579875473%" y1="49.9954547%" x2="99.997301%" y2="49.9954547%" id="Z"><stop stop-color="#fb6b14" offset="0%"/><stop stop-color="#fdb521" offset="100%"/></linearGradient><path d="M39.474 34.524C52.956 42.354 67.68 44.23 75.57 50.08h0C86.728 58.367 92.24 68.01 94.86 76.486h0c-8.485-53.842-32.213-51.22-51.714-52.808h0C22.22 21.956 1.79 2.196.533.965h0c21.697 25.618 25.47 25.75 38.94 33.56" id="a"/><linearGradient x1="-0.00229028318%" y1="50.0014363%" x2="100.002287%" y2="50.0014363%" id="b"><stop stop-color="#fb6b14" offset="0%"/><stop stop-color="#fdb521" offset="100%"/></linearGradient><path d="M.366 13.156c1.066 3.586 9.342 7.063 12.43 7.063h0c3.7 0 1.9-4.27 1.717-6.9h0c-.054-.792-.036-2.293.025-4.23h0c-.6 2.837-6.235 4.363-8.964.634h0c-1.782-2.437-2.47-5.663-2.96-8.446h0c-.022-.122-.065-.23-.1-.35h0c-1.4 4.907-2.995 9.418-2.16 12.23" id="c"/><linearGradient x1="-0.00164408599%" y1="49.9906811%" x2="100.002669%" y2="49.9906811%" id="d"><stop stop-color="#fb6b14" offset="0%"/><stop stop-color="#fdb521" offset="100%"/></linearGradient><path d="M3.426 12.076c-1.267 0-2.135-1.4-2.988-2.153h0l.14 2.304c.302 2.62-.004 8.92 3.57 8.92h0c3.092 0 8.87-6.678 9.64-9.097h0c.882-2.758-.702-7.204-2.1-12.046h0c-.212.896-1.894 12.07-8.266 12.07" id="e"/><linearGradient x1="-0.000354525836%" y1="49.9999966%" x2="99.9877895%" y2="49.9999966%" id="f"><stop stop-color="#fb6b14" offset="0%"/><stop stop-color="#fdb521" offset="100%"/></linearGradient><path d="M4.986 2.376C-.396 5.8-1.27 12.272 2.128 19.36h0c.3-2.89-.328-7.84 3.348-13.24h0C7.088 3.744 11.1 1.534 15.74.98h0c-.73-.21-2.156-.533-3.917-.533h0c-2.016 0-4.475.425-6.836 1.93" id="g"/><linearGradient x1="0.00610372251%" y1="50.0051085%" x2="100.01185%" y2="50.0051085%" id="h"><stop stop-color="#fb6b14" offset="0%"/><stop stop-color="#fdb521" offset="100%"/></linearGradient><path d="M18.367 15.446c6.098 3.542 12.762 4.385 16.33 7.034h0c5.05 3.748 7.542 8.11 8.726 11.945h0c-3.838-24.354-14.573-23.17-23.393-23.9h0C10.562 9.762 1.325.82.752.265h0c9.814 11.585 11.524 11.65 17.615 15.18" id="i"/><linearGradient x1="-0.000904412385%" y1="50.0037064%" x2="100.004153%" y2="50.0037064%" id="j"><stop stop-color="#fb6b14" offset="0%"/><stop stop-color="#fdb521" offset="100%"/></linearGradient><path id="k" d="M450.353 223.686l52.884 199.217h5.238l-52.888-199.217z"/></defs><g transform="translate(-153 -1)" fill="none" fill-rule="evenodd"><g class="D"><use xlink:href="#k"/><use xlink:href="#k" x="61.487"/><path d="M461.17 252.415l.673 4.295h60.84l-.673-4.295zm9.496 35.91l.677 4.295h60.84l-.673-4.295zm9.5 35.912l.673 4.3h60.844l-.677-4.3zm9.495 35.91l.673 4.295h60.844l-.673-4.295zm9.5 35.91l.673 4.298h60.84l-.673-4.298z"/></g><g class="L"><path d="M387.08 422.902h5.238L445.2 223.686h-5.234zm59.495 0h5.234l52.888-199.217h-5.238z"/><path d="M395.573 402.793h58.846l.677-4.295H396.25zm9.497-35.913h58.85l.673-4.3h-58.85zm9.5-35.908h58.846l.677-4.3h-58.85zm9.497-35.91h58.846l.677-4.3h-58.85zm9.497-35.908H492.4l.677-4.298h-58.85z"/></g><path d="M470.148 223.685H526.2v-10.72h-56.052z" class="D"/><path d="M433.25 223.685h76.78v-10.72h-76.78z" class="L"/><path d="M391.007 283.54s-5.23-20.545-13.986-21.373c-8.762-.835-14.27.626-14.27.626s6.728-11.786-1.832-22.86-32.746-25.988-52.967-42.268l-.022-.014s0 .018.025.058c.652 1.523 12.83 30.164 12.218 63.39-.662 36.356 53.37 14.087 40.057 104.166-5.652 38.192-25.628 48.938-27.925 70.085-.526 4.9-.104 10.404 1.663 16.906 0 0 55.678-58.154 58.788-146.87l-12.028 3 10.278-24.854z" class="D"/><path d="M385.606 372.63c-9.37 10.094-45.54 72.104-13.266 72.104 10.92 0 31.154-26.676 46.07-45.342 12.938-16.193 32.447-13.766 32.447-13.766s-45.374-34.402-65.25-12.996" class="B"/><g transform="translate(192.2 213.82)"><mask id="l" class="C"><use xlink:href="#A"/></mask><path d="M.265.433c31.583 54.6 38.513 56.102 60.81 75.035h0c22.324 18.972 49.04 27.248 61.567 40.8h0c40.388 43.682 24.718 89.654 21.41 96.012h0c-.014.03 6.11 10.462 6.11 10.462h0c44.27-101.178-19.793-175.9-19.498-172.224h0c.3 3.72-8.035 14.616-8.035 14.616h0s-3.15-18.158-5.587-23.076h0c-2.398-4.838-42.47-17.885-43.726-18.277h0c7.312 12.856 6.818 22.262 6.818 22.262h0s-10.343-23.37-32.04-26.068h0C26.408 17.296.172.296.172.296h0s.025.04.094.137" fill="url(#B)" mask="url(#l)"/></g><path d="M221.463 396.345c-14.41 4.532-45.96 18.857-59.893 46.883 0 0 32.62-39.863 79.168-39.863 40.1 0 96.048 26.676 101.268 48.488l16.225-14.152s-59.04-65.804-136.768-41.357" class="H"/><path d="M333.75 258.216c-6.76-27.6-24.75-58.957-25.798-60.51.655 1.523 12.83 30.164 12.222 63.39-.666 36.356 53.37 14.087 40.057 104.166-5.652 38.192-18.576 48.334-20.866 69.484 11.102-17.377 30.78-62.402 32.18-100.555 1.757-48.208-29.93-43.873-37.796-75.974" class="G"/><path d="M205.8 454.525c-.08-.32-.1-.62-.166-.936.072.598.166.936.166.936" class="D"/><path d="M231.836 357.012s24.818-1.937 40.237 19.292c17.777 24.476 60.448 73.642 74.25 74.28 40.824 1.88-19.94-92.905-31.205-106.214-23.897-28.23-83.282 12.643-83.282 12.643" class="G"/><path d="M349.124 464.207h45.77c-6.728-5.663-9.976-27.702 0-39.712 0 0-46.066 15.008-45.77 39.712" class="B"/><path d="M463.08 424.874c-18.39-11.704-37.92-5.152-44.672-5.79-69.286-6.58-75.024 35.057-78.97 45.122h10.02c2.675-20.646 45.745-52.837 64.184-17.06 3.452 6.7 7.59 12.524 12.046 17.608h57.54c.67-16.675-5.944-30.834-20.146-39.88" class="D"/><g transform="translate(417.8 416.62)"><mask id="m" class="C"><use xlink:href="#C"/></mask><path d="M.608 2.466C17.2 3.852 36.54 13.946 43.24 23.8h0c6.088 8.946 10 16.938 12.337 24.336h9.853c.666-16.675-5.947-30.834-20.15-39.88h0C35.474 2.012 25.276.252 16.906.252h0C9.58.252 3.654 1.598.608 2.466" fill="url(#D)" mask="url(#m)"/></g><path d="M450.847 358.612c-19.102-9.176-29.297 1.264-29.297 1.264-22.428-7.89-38.862 15.944-38.862 15.944s26.63-8.032 38.596 10.562c11.97 18.612 36.436 24.728 36.436 24.728 12.906-18.004 12.233-43.322-6.872-52.5" class="G"/><g class="D"><path d="M233.418 322.848c-24.696 10.5-27.018 42.48-11.743 66 20.048-63.965 48.722-62.698 48.722-62.698s-12.287-13.795-36.98-3.3m30.276-52.396c-38.124-10.156-69.314-53.5-71.23-56.2 31.583 54.6 38.516 56.102 60.815 75.03 22.324 18.972 48.93 27.353 61.564 40.8 17.87 19.044 24.847 38.707 26.867 55.26 2.264-102.388-42.487-105.448-78.016-114.9"/><path d="M232.482 419.84c-12.996 4.093-30.68 15.408-26.842 33.75-.515-4.115-.234-20.624 36.533-24.257 33.8-3.337 82.278 15.152 94.288 34.873h5.753l9.572-11.192s-52.535-54.2-119.304-33.174m463.55-132.78c-5.375 6.96-1.152 14.357-1.152 14.357s-3.456-.922-8.96-.396c-5.497.518-8.78 13.42-8.78 13.42l6.45 15.6-7.553-1.9c1.955 55.706 28.52 93.154 28.52 93.154 1.112-4.086 9.77-8.467 9.44-11.55-1.44-13.28-13.986-20.027-17.536-44.006-8.36-56.563 25.57-42.58 25.153-65.412-.382-20.862 7.265-38.844 7.675-39.798.014-.025.014-.04.014-.04l-.01.01c-12.7 10.224-27.9 19.584-33.26 26.54"/></g><path d="M639.557 378.546s12.25-1.526 20.372 8.64c9.367 11.722 22.075 28.476 28.926 28.476 20.268 0-2.44-38.94-8.327-45.277-12.48-13.442-40.972 8.16-40.972 8.16" class="B"/><g transform="translate(697.4 270.22)"><mask id="n" class="C"><use xlink:href="#E"/></mask><path d="M74.37 12.988c-13.622 1.692-20.113 16.37-20.113 16.37h0s-.313-5.908 4.284-13.982h0c-.796.245-25.956 8.442-27.46 11.477h0c-1.53 3.09-3.514 14.5-3.514 14.5h0s-5.227-6.84-5.04-9.173h0c.184-2.315-40.04 44.608-12.244 108.14h0l3.838-6.566c-2.077-3.996-11.92-32.864 13.446-60.293h0c7.862-8.507 24.638-13.705 38.653-25.618h0c14-11.89 18.356-12.838 38.185-47.117h0c.047-.065.058-.086.058-.086h0s-16.47 10.678-30.092 12.36" fill="url(#F)" mask="url(#n)"/></g><path d="M783.597 385.274c-48.805-15.35-85.878 25.97-85.878 25.97l10.188 8.885c3.28-13.694 38.412-30.445 63.587-30.445 29.228 0 49.712 25.03 49.712 25.03-8.748-17.6-28.56-26.597-37.61-29.44" class="D"/><path d="M689.357 346.248c.882 23.958 13.237 52.23 20.207 63.14-1.436-13.277-9.554-19.65-13.104-43.628-8.36-56.563 25.57-42.58 25.153-65.412-.382-20.862 7.265-38.844 7.675-39.802-.655.976-11.952 20.67-16.2 37.994-4.936 20.16-24.836 17.435-23.73 47.707m87.322 53.783c-41.93-13.198-74.916 20.83-74.916 20.83l6.012 7.027h3.6c7.542-12.384 38-23.994 59.206-21.9 23.087 2.282 23.263 12.647 22.94 15.235 2.412-11.516-8.7-18.623-16.852-21.193" class="G"/><path d="M793.532 421.222l-.104.583s.058-.21.104-.583" class="D"/><path d="M724.8 352.64c-7.074 8.356-45.227 67.874-19.595 66.694 8.67-.4 35.46-31.273 46.624-46.642 9.684-13.33 25.265-12.114 25.265-12.114s-37.29-25.668-52.294-7.938" class="H"/><path d="M674.696 402.95c6.264 7.538 4.223 21.377 0 24.937h28.742c.184-15.512-28.742-24.937-28.742-24.937" class="B"/><g transform="translate(618.2 398.62)"><mask id="o" class="C"><use xlink:href="#G"/></mask><path d="M13.68 4.568C-.348 13.504-2.63 30.377 6.23 48.863h0c.03.065.065.13.094.19h0s26.068-6.57 38.4-30.5h0c11.578-22.468 38.624-2.25 40.302 10.714h6.29C88.838 22.946 85.238-3.197 41.73.936h0c-1.2.112-3.038-.133-5.32-.382h0c-1.9-.205-4.086-.4-6.476-.4h0c-4.925 0-10.67.875-16.25 4.424" fill="url(#H)" mask="url(#o)"/></g><path d="M631.88 403.187c-14.03 8.935-16.312 25.812-7.452 44.298-1.95-10.127-.846-20.444 8.73-34.535 4.208-6.188 16.355-12.528 26.773-13.396-4.097-1.166-16.502-3.712-28.05 3.632" class="L"/><path d="M657.96 362.374s-6.4-6.552-18.396-.792-12.42 21.66-4.316 32.97c0 0 15.365-3.845 22.878-15.534 7.517-11.675 24.235-6.63 24.235-6.63s-10.318-14.965-24.4-10.012" class="G"/><path d="M639.562 361.583c-12 5.76-12.42 21.66-4.316 32.965 8.478-32.144 22.712-32.173 22.712-32.173s-6.4-6.556-18.396-.792" class="D"/><path d="M776.1 339.12c-15.505-6.584-23.22 2.077-23.22 2.077s18.007-.8 30.593 39.37c9.594-14.77 8.136-34.86-7.373-41.447m-19-32.894c-22.306 5.93-50.407 7.852-49 72.14 1.27-10.4 5.652-22.74 16.873-34.7 7.934-8.442 24.638-13.702 38.653-25.614 14.004-11.9 18.36-12.834 38.2-47.117-1.202 1.688-20.786 28.915-44.726 35.3" class="D"/><g transform="translate(458.6 150.22)"><mask id="p" class="C"><use xlink:href="#I"/></mask><path d="M15.904.047C8.074 2.185 3.937 13.993.33 20.974h0s2.423 5.022 11.4 5.66h0s9.238-14.75 9.3-18.48h0c.05-3.578-3.258-8.136-4.918-8.136h0a.79.79 0 0 0-.209.029" fill="url(#J)" mask="url(#p)"/></g><path d="M474.502 150.265c-.454.126-.896.284-1.325.468.256.396.418.893.407 1.52-.13 7.934-5.34 15.876-11.495 22.108 1.764 1.14 4.4 2.22 8.24 2.495 0 0 9.24-14.75 9.3-18.482s-3.553-8.536-5.126-8.107" class="H"/><g transform="translate(459.8 146.62)"><mask id="q" class="C"><use xlink:href="#K"/></mask><path d="M11.42 5.112c-2.423 1.645-.202 29.3-2.48 33.602h0L.883 53.838c9.475 5.58 45.878 5.566 45.878 5.566h0s1.98-6.538 3.532-17.366h0c1.8-12.56 2.412-39.9 1.714-40.1h0C47.56.77 42.632.306 37.772.306h0C25.896.306 14.43 3.07 11.42 5.112" fill="url(#L)" mask="url(#q)"/></g><path d="M496.763 132.174l-12.078 7.506c.234.53.896 5.184.004 7.42-.763 1.92-1.5 4.817 2.765 5.735 3.978.857 11.347-2.794 10.368-6.08-1.714-5.735-1.058-14.58-1.058-14.58" class="E"/><path d="M496.763 132.174l-12.078 7.506c.234.53.896 5.184.004 7.42l-.338.98c.043 0 2.1-.24 4.212-1.717 2.153-1.508 4.56-.698 6.24 1.4.623.78.896 1.807.875 2.844 1.562-1.127 2.542-2.513 2.146-3.84-1.714-5.735-1.058-14.58-1.058-14.58" class="F"/><path d="M509.834 148.086c-4.71-.688-12.884 6.775-13.298 18.623-.112 3.143-1.008 7.164-3.65 12.1-1.48 2.772-7.513 5.065-10.116 5.97-2.596.907-2.948 2.052-1.44 2.84s13.417 2.74 11.952 4.56c-1.562 1.944-16.07 5.16-13.424 11.42 1.278 3.03 23.303.857 27.364-.043 1.34-2.455 1.5-8.392 2.37-12.125 1.81-7.715 1.22-24.24 2.326-33.048.612-5.904 3.074-9.554-2.08-10.307" class="J"/><path d="M461.056 212.285c-.666.068-10.102-.6-13.874-.162-3.77.446-5.303.533-7.53 3.03s-1.465 6.772-.295 9.803c1.174 3.024 2.783 3.067 5.713 2.24s6.134-3.154 9.094-3.445 3.708.23 5.785-.378 2.484.086 2.268-1.426c-.216-1.52-1.16-9.662-1.16-9.662" class="G"/><path d="M461.056 212.285c-.666.068-10.102-.6-13.874-.162-3.77.446-5.303.533-7.53 3.03-1.206 1.354-1.534 3.23-1.393 5.148 2.257.583 4.13.418 6.462-.1 1.933-.407 3.985-1.174 5.987-.796 2.117.403 4.702 2.066 5.5 4.237 1.436.007 2.254.158 3.75-.28 2.08-.605 2.484.086 2.268-1.426-.216-1.52-1.16-9.662-1.16-9.662" class="B"/><path d="M443.877 213.237c1.267-.832 2.984-.936 5.062-1.23l-1.757.115c-3.77.446-5.303.533-7.53 3.03s-1.465 6.772-.295 9.803c1.062 2.74 2.48 3.035 4.914 2.452-3.953-3.308-5.407-10.858-.392-14.17" class="C"/><path d="M511.716 212.562c-2.17-.35-9.37-.284-14.9-1.08l-5.994 8.496c-.14.19 4.388 2.67 6.253 4.126s9.3 3.982 11.358 3.593 5.864-8.568 6.638-11.51c.767-2.945-1.2-3.283-3.366-3.625" class="G"/><path d="M511.716 212.562c-2.17-.35-9.37-.284-14.9-1.08l-5.897 8.356c2.552.036 4.997-1.303 7.6-.893 1.314.212 2.858 1.933 6.66 1.48 2.315-.28 1.876 3.593-.126 5.537a6.41 6.41 0 0 1-1.307.961c1.966.576 3.805.936 4.676.774 2.063-.39 5.864-8.568 6.638-11.51.767-2.945-1.2-3.283-3.366-3.625" class="B"/><path d="M442.545 193.856c-5.285 1.11-7.33 5.152-7.32 9.64.004 2.678 2.376 5.584 5.342 6.49s49.02 11.42 50.332 11.736 6.804-13.06 6.804-13.06c-1.663-.6-45.17-16.906-55.16-14.807" class="M"/><path d="M471.728 118.537s-2.084 1.753-2.347 4.27 2.58 6.523 2.58 6.523 2.682-6.833 2.3-8.802c-.076-.392-2.534-1.99-2.534-1.99" class="B"/><path d="M484.2 148.624l.306-1.123s-2.275-.1-2.668 2.8c-.655 4.896 1.793 8.485 1.793 8.485.403-2.603 4.22-6 4.22-6-3.384-1.447-3.65-4.162-3.65-4.162" class="C"/><path d="M500.997 128.02c-1.25-2.26-3.413-.374-3.413-.374s-.464-5.76-4.572-9.515c-4.104-3.762-8.237-2.178-15.602 0-7.373 2.17-5.944 4.504-5.944 4.504s.256 5.983 1.382 12.18c.46 2.524 3.3 6 6.332 9.734 2.938 3.632 7.08 1.598 12.434-1.544s5.036-6.26 5.018-6.84c0 0 .907.42 2.603-.8 1.7-1.224 3.107-4.486 1.88-7.103-.04-.08-.076-.155-.12-.23" class="E"/><path d="M500.997 128.02c-1.25-2.26-3.413-.374-3.413-.374s-.464-5.76-4.572-9.515c-.94-.86-5.692.73-5.1 3.2.67 2.754 2.905 4.633 3.34 7.243.504 3.013 1.29 8.597-.53 11.128-2.624 3.658-7.175 6.584-11.7 4.658.054.065.097.122.148.187 2.938 3.632 7.08 1.598 12.434-1.544s5.036-6.26 5.018-6.84c0 0 .907.42 2.603-.8 1.7-1.224 3.107-4.486 1.88-7.103-.04-.08-.076-.155-.12-.23" class="F"/><path d="M470.932 117.293c-.932 1.95-1.858 8.334 3.43 9.785 5.82 1.59 16.1-5.778 18.37-1.512 1.854 3.485-.364 5.8 1.3 7.178.878.72 1.99.46 2.412-.493.155-.335-.054-2.916 1.14-4.608.072-.1 1.004-.734 1.84-.73 0 0 1.148-4.144-.5-7.996-5.612-13.2-24.066-9.878-28.004-1.624" class="H"/><path d="M486.977 110.17c3.755 2.64-1.05 8.802 2.686 11.833 3.312 2.686 4.813 3.514 4.745 5.548-.04 1.336-.544 4.53-.634 4.928a1.99 1.99 0 0 0 .259.266c.878.72 1.99.457 2.412-.493.155-.335-.054-2.92 1.14-4.608.072-.104 1.004-.738 1.84-.734 0 0 1.148-4.14-.5-7.992-2.376-5.584-7.056-8.2-11.96-8.748" class="B"/><path d="M512.73 194.953c-5.285-3.096-14.818.69-25.423 4.046-8.298 2.628-31.32 10.516-31.32 10.516s-2.315 9.792 3.996 15.754c0 0 31.788-7.64 52.247-16.398 1.512-.64 3.73-1.54 4.406-4.878.677-3.33-.983-7.322-3.906-9.04" class="M"/><path d="M497.872 129.773c-.24.724-.356 1-.12 1.634.245.64.414.317.46.932.047.608-.6.335-.788.983-.19.655-.047 1.112.64 1.274.695.166 1.47-.454 2.052-1.796.583-1.35.778-3.12.176-3.928-.706-.94-2.095-.1-2.423.9" class="F"/><path d="M512.093 212.622c1.724 1.38-3.02 13.028-6.894 14.688 1.393.342 2.588.51 3.244.385 2.066-.39 5.868-8.564 6.642-11.51.72-2.768-.983-3.23-2.992-3.564" class="C"/><path d="M506.37 155.504c-.93 6.584 8.885 23.684 8.885 23.684l-26.546-5.908c-3.9-.39-8.428-3.75-9.91-3.632-.403.032-3.39 1.224-3.55 1.343s-5.07 4.154-4.64 5.065c.15.32 1.23-.068 1.523-.24.868-.533 2.8-2.466 3.614-2.85 1.332-.63 3.683-.886 3.683-.886s-2.286 1.084-2.98 1.56c-1.224.842-3.38 2.956-4.26 4.136-.324.432-.403.8-.184.907.306.144.868-.05 1.447-.3 1.004-.446 2.275-1.955 2.556-2.2.288-.245 2.62-1.422 2.62-1.422s-2.488 2.6-2.94 3.265c-.554.796-2.06 3.056-1.505 3.316.292.14.752-.26 1.314-.695 1.228-.94 1.944-2.347 2.477-2.668s2.304-1.38 2.786-1.483c0 0-1.127.965-1.426 1.624-.234.522-.896 2.092-.896 2.092s-.317 2.358.392 2.178c.767-.202 1.285-2.498 1.285-2.498s.457-.295.87-.943c0 0 2.848.98 5.4 1.044 2.556.058 3.766-.965 3.766-.965h.007c.205.8 27.756 9.06 30.503 9.64 2.804.6 4.982-1.29 5.198-2.282 1.07-4.892-5.054-19.822-9.076-30.2-3.694-9.544-10.16-2.484-10.415-.67" class="E"/><path d="M506.37 155.504c-.8 5.66 6.34 19.09 8.36 22.745 1.094.108 2.43-.022 4.08-.796 3.48-1.638 8.068 3.726 2.89 6.99-3.47 2.185-8.932.335-31.147-6.998-2.08-.69-4.352.864-5.832.84-.77-.014-2.488-.96-3.45-.353-1.63 1.04-1.886 2.182-2.46 3.982-.05.162-.15.26-.266.32.072.1.155.176.284.144.767-.202 1.285-2.498 1.285-2.498s.457-.295.87-.943c0 0 2.848.98 5.4 1.044 2.556.058 3.766-.965 3.766-.965h.007c.205.8 27.756 9.06 30.503 9.64 2.804.6 4.982-1.29 5.198-2.282 1.07-4.892-5.054-19.822-9.076-30.2-3.694-9.544-10.16-2.484-10.415-.67" class="F"/><g transform="translate(503 147.82)"><mask id="r" class="C"><use xlink:href="#M"/></mask><path d="M5.876.398c-7.222 1.436-7.93 10.487 4.58 29.012h0s7.708-.536 11.822-4.406h0S14.444.33 6.593.326h0a3.72 3.72 0 0 0-.716.072" fill="url(#N)" mask="url(#r)"/></g><path d="M510.435 148.244a3.12 3.12 0 0 1 .616 1.307c1.278 6.09.15 12.856-3.236 18.313 1.454 2.804 3.308 5.918 5.64 9.367 0 0 7.708-.536 11.822-4.4 0 0-7.28-22.943-14.843-24.577" class="J"/><path d="M497.26 143.888l.37 2.124s-4.89 7.32-9.78 6.775c0 0 3.92 3.355 5 6.163 0 0 5.987-5.436 6.678-10.44.493-3.52-2.257-4.622-2.257-4.622" class="C"/><g class="H"><path d="M472.294 192.323c-.004 1.066.86 1.93 1.915 1.93h45.155a1.92 1.92 0 0 0 1.915-1.915v-.014h-48.985z"/><path d="M467.418 152.512c-.428-1.555-1.858-2.614-3.463-2.574l-27.706-.014v43.852l38.257.48c2.34 0 2.477-1.81 2.322-2.437l-9.4-39.305z"/></g><path d="M465.428 150.744c-.137-.486-.583-.824-1.084-.824h-48.906c-.745 0-1.285.71-1.087 1.426l9.173 38.84c.666 2.405 2.858 4.068 5.35 4.068h45.54c.745 0 1.285-.71 1.084-1.426l-10.07-42.084z" class="M"/><g transform="translate(252.2 293.02)"><mask id="s" class="C"><use xlink:href="#O"/></mask><path d="M110.146.394v.014c-3.092-.036-6.217.194-9.342.73h0c-17.665 3.017-32.19 14.746-38.862 31.378h0L.673 185.344h65.214l71.42-160.063c1.606-2.444 38.095-14.198 38.095-14.198h0V.394h-65.257z" fill="url(#P)" mask="url(#s)"/></g><g transform="translate(453.8 222.02)"><mask id="t" class="C"><use xlink:href="#Q"/></mask><path d="M62.514.085v.018c-2.8-.043-5.612.18-8.435.706h0c-14.332 2.668-26.07 12.362-31.4 25.927h0L.767 82.514c4.093 5.04 11.85 35.176 45.94 35.176h0c13.176 0 43.805-90.907 43.805-90.907h0L127.07.085H62.514z" fill="url(#R)" mask="url(#t)"/></g><g transform="translate(673.4 48.22)"><mask id="u" class="C"><use xlink:href="#S"/></mask><path d="M24.847.34L.497 129.083c5.076-4.655 21.424-19.07 62.924 20.344h0L93.096.34h-68.25z" fill="url(#T)" mask="url(#u)"/></g><g transform="translate(589.4 161.02)"><mask id="v" class="C"><use xlink:href="#U"/></mask><path d="M41.448.24v.014c-1.177.03-2.365.108-3.557.274h0c-11.844 1.634-21.305 9.785-24.696 21.25h0L.678 64.177c4.705 2.902 9.457 5.728 14.537 7.924h0c.536.227 31.76 29.963 32.162 30.34h0l9.634-6.545L107.897.24h-66.45z" fill="url(#V)" mask="url(#v)"/></g><path d="M723.863 193.522c-5.23-.068-8.87-5.083-9.385-10.746a28.4 28.4 0 0 1-.101-2.171l-1.314-1.84c-.875-1.174-1.13-2.62-.947-4.057h-35.05v37.058h59.764v-10.6c-4.946-.245-9.24-3.488-12.967-7.636m-121.565 44.267h-44.482l-9.882 37.055h88.96v-10.606c-4.95-.252-34.776-25.02-34.596-26.45m-165.686 62.727l-41.454 16.524-12.56 37.058h113.087v-10.6c-6.3-.252-59.303-41.544-59.072-42.973" class="K"/><path d="M736.157 192.896c-.05.266-.184.986-1.177 1.177-1 .184-1.382-.432-1.53-.662l-11.408-18.12c-6.372-10.116-17.7-15.386-29.538-13.745s-21.308 9.785-24.692 21.25l-19.343 65.51c-1.267 4.29-4.626 7.46-8.986 8.467s-8.773-.353-11.797-3.654l-15.966-17.4c-9.86-10.742-24.293-15.56-38.628-12.895-14.328 2.67-26.068 12.362-31.4 25.93L511.54 325.51c-2.214 5.64-7.103 9.634-13.075 10.674a17.09 17.09 0 0 1-15.916-5.62l-17.262-19.696c-11.808-13.482-29.405-19.728-47.07-16.71s-32.19 14.75-38.858 31.38L318.09 478.365h19.16l58.615-146.207a33.12 33.12 0 0 1 25.348-20.47c11.516-1.97 22.997 2.106 30.697 10.894l17.262 19.703c8.118 9.266 20.214 13.536 32.35 11.42a34.76 34.76 0 0 0 26.572-21.69l30.154-76.756a24.07 24.07 0 0 1 40.367-7.517l15.966 17.402c7.42 8.082 18.23 11.43 28.92 8.957 10.685-2.48 18.925-10.238 22.032-20.76l19.34-65.506c1.404-4.752 5.166-7.992 10.073-8.67 4.907-.684 9.414 1.415 12.053 5.605l11.408 18.115a19.16 19.16 0 0 0 19.894 8.662c7.837-1.487 13.856-7.5 15.336-15.347L781.42 49.3h-18.1l-27.162 143.597z" class="J"/><path d="M736.83 1.13l-44.802 48.413h121.745L759.224 1.13z" class="K"/><g transform="translate(669.6 .22)"><mask id="w" class="C"><use xlink:href="#W"/></mask><path fill="url(#X)" mask="url(#w)" d="M.03 49.326h121.74L67.228.9z"/></g><path d="M189.7 274.473c-4.23.454-7.243 4.327-6.653 8.536.565 4.007 4.183 6.844 8.212 6.44 8.975-.907 22.975-3.107 31.694-7.26l-1.577-9.288c-4.277.742-17.726.083-31.676 1.573" class="B"/><path d="M249.676 245.87c.5-.91.223-2.052-.774-2.53.572-.968-.28-1.652-1.134-1.746.932-1.534 1.584-2.873.22-3.258-.666-.187-2.974 3.956-4.007 5.36-1.742 2.383-2.995.486-4.183 2.657-1.292 2.35-.832 4.216-.738 6.365.058 1.436-.745 2.28-1.372 3.37-2.657 4.637-11.588 11.646-18.986 18.374-2.538 2.31.223 8.186 2.812 8.057 6.52-.324 17.608-18.36 22.014-24.196 3.362-4.453 4.817-7.402 6.09-9.025 1.195-1.52 1.325-2.67.058-3.427" class="E"/><path d="M249.676 245.87c.5-.91.223-2.052-.774-2.53.572-.968-.28-1.652-1.134-1.746.932-1.534 1.584-2.873.22-3.258-.666-.187-2.974 3.956-4.007 5.36-.724.997-1.9 4.6 1.058 6.534 1.843 1.206 4.104-.324 4.58-.932 1.195-1.52 1.325-2.67.058-3.427" class="F"/><path d="M236.863 255.362c-2.657 4.64-12.586 12.172-19.984 18.907-2.538 2.308 1.62 8.88 4.208 8.752 6.47-.324 18.727-17.478 23.202-23.465-1.973-.6-5.515-3.47-6.944-4.925-.166.238-.335.48-.482.73" class="B"/><path d="M240.14 262.63c-5.296 4.356-14.328 12.204-19.253 15.847-5.774 4.277-10.897 3.2-17.464 4.046-6.94.896-12.204 4.813-18.634 4.33 1.724 2.545 4.13 2.833 6.476 2.596 8.356-.842 21.06-2.812 29.812-6.43h.007c5.314-.263 14.537-11.89 20.138-19.346.54-.72-.392-1.613-1.084-1.044" class="H"/><path d="M241.476 239.15c-.706 2.48-1.292 3.52-1.775 4.446l-.734 5.27 2.416-1.638c.418-.972.76-2.488.392-4 1.015-1.703.835-3.2-.3-4.1m-53.203 24.018c2.012-3.344-2.94-5.717-6.63-7.196l-6.642-2.3c-.418-.122-.93-.227-1.246.08-.382.367-.162 1.008.1 1.476 1.7 3.168.997 14.238-.295 18.64-.086.295 15.394 2.592 15.394 2.592s-3.143-9.173-.67-13.28" class="E"/><path d="M183.494 257.323l-8.496-3.676c-.418-.122-.93-.227-1.246.08-.382.37-.158 1.008.1 1.476 1.7 3.168.997 14.238-.295 18.64-.058.205 7.384 1.375 11.938 2.074-2.095-3.2-3.434-13.813-1.99-18.594" class="F"/><path d="M194.535 247.9c-2.67-1.584-5.317-5.882-6.29-8.287-2.527-6.235-11.804-3.665-14.922 2.974-1.602 3.416-1.386 7.452-.3 11.07 1.368 4.6 4.313 8.96 8.726 10.83 1.418.6 8.428 1.865 10.073.868 2.297-1.4 2.22-11.336 3.326-14.058.958-2.344.058-3.002-.605-3.395" class="E"/><path d="M177.695 257.162c-3.575-4.35-4.73-9.68-2.78-15.073.655-1.8 1.663-3.305 2.916-4.486-1.854 1.138-3.503 2.844-4.507 4.986-1.602 3.413-1.4 7.448-.3 11.066 1.368 4.594 4.313 8.964 8.726 10.832 1.325.562 7.55 1.706 9.69 1.03a14.32 14.32 0 0 1-2.7-.364c-4.198-1.02-8.33-4.69-11.038-7.992" class="F"/><path d="M180.48 233.435c-15.055-2.686-18.328 7.765-18.018 15.682.317 8.132 8.64 15.088 12.002 16.15.45.14 6.7.418 10.16-7.175.695-1.523 1.105-3.035.335-3.467-2.74-1.537-3.787-6.005-2.646-7.135 1.764-1.746 2.592 1.195 3.748.313 1.03-.785 2.42-6.3.875-9.248-1.14-2.196-3.647-4.62-6.455-5.12" class="I"/><g transform="translate(162.2 238.82)"><mask id="x" class="C"><use xlink:href="#Y"/></mask><path d="M2.88.96C.148 2.613-1.966 12.045 3.888 19.504h0c2.178 2.772 6.732 7.002 9.18 6.998h0c2.552-.004-3.64-7.96-3.107-13.104h0c.133-1.274 1.008-4 1.274-5.252h0C12.157 3.798 9.288.11 5.778.11h0c-.94 0-1.926.263-2.898.85" fill="url(#Z)" mask="url(#x)"/></g><path d="M161.857 237.738c-4.586 0-8.305 3.715-8.305 8.302a8.31 8.31 0 0 0 8.305 8.305c4.586 0 6.2-3.72 6.2-8.305s-1.613-8.302-6.2-8.302" class="I"/><path d="M234.74 470.708c-4.06-1.462-9.475-4.457-11.19-6.023-1.11-1.03-1.382-2.617-1.444-4.187-1.238.572-2.653.8-4.057.8-1.454-.004-2.887-.274-4.086-.734-.115 2.326-.076 4.67-.36 6.966-.144 1.134-.4 2.344.162 3.312.752 1.292 2.552 1.436 4.043 1.454a105.81 105.81 0 0 1 10.127.626c2.902.302 5.904.73 8.676-.205.562-.173 1.213-.626 1.02-1.195-.8-.126-1.8-.418-2.89-.814" class="E"/><path d="M234.74 470.708c-.086-.01-.162-.043-.26-.08-1.238.238-2.52.364-3.83.284-5.634-.288-11.15-4.13-12.6-9.616-1.454-.004-2.887-.274-4.086-.734-.115 2.326-.076 4.67-.36 6.966-.144 1.134-.4 2.344.162 3.312.752 1.292 2.552 1.436 4.043 1.454a105.81 105.81 0 0 1 10.127.626c2.902.302 5.904.73 8.676-.205.562-.173 1.213-.626 1.02-1.195-.8-.126-1.8-.418-2.89-.814" class="F"/><path d="M238.394 471.133l-8.924-3.23c-1.134-.403-2.01 1.145-2.01 2.056-6.876-.03-12.848-4.684-13.792-3.985-1.746 1.292-3.1 5.346.35 6.916.454.205 1.534.335 5.188.346 3.27.018 6.502 1.894 8.532 1.904l10.67.043c1.14.004 1.912-3.233-.014-4.05" class="B"/><g class="I"><path d="M236.963 472.803c-4.4.69-9.425-.3-13.8-1-4.255-.67-7.398-1.93-10.84-3.982-.75 1.728-.68 3.985 1.706 5.07.45.205 1.53.335 5.184.346 3.272.018 6.505 1.894 8.532 1.904l10.674.043c1.008.004 1.717-2.527.533-3.672-.378.64-1.022 1.14-1.98 1.292"/><path d="M219.963 473.09l-7.927-2.318 1.67 4.31 6.7.03s-.626-1.213-.454-2.02"/></g><path d="M216.762 459.957v-.022c-.126.06-.227.148-.353.21l.353-.187" fill="#d0aecf"/><path d="M181.1 464.742c-1.92-1.742-1.343-5.14-1.48-7.337-.158-2.57-7.798-.4-7.852-.01-.5 3.384-.194 6.847-.598 10.25-.137 1.112-.396 2.326.176 3.294.76 1.296 2.55 1.43 4.054 1.447a109.37 109.37 0 0 1 10.123.576c2.902.302 5.915.71 8.68-.223.55-.187 1.2-.655 1.008-1.206-3.74-.55-11.91-4.788-14.112-6.8" class="E"/><path d="M175.134 457.04c.104-.248.234-.486.356-.724-1.88.284-3.697.89-3.722 1.08-.486 3.384-.19 6.847-.598 10.246-.137 1.116-.396 2.33.173 3.294.767 1.3 2.552 1.433 4.057 1.45 3.136.03 6.27.212 9.392.515-6.2-2.862-12.676-8.54-9.66-15.862" class="F"/><path d="M195.973 471.133l-8.94-3.2c-1.134-.39-2.002 1.163-2.002 2.07-6.872 0-12.863-4.63-13.806-3.928-1.74 1.296-3.078 5.36.378 6.916.454.202 1.534.324 5.188.324 3.272 0 6.51 1.868 8.543 1.868H196c1.145 0 1.9-3.24-.03-4.05" class="B"/><path d="M194.148 472.624c-1.84.5-3.866.48-5.7-.014-1.292-.35-8.94-1.274-11.372-1.404-2.966-.155-5.414-1.588-6.847-3.967-1.08 1.757-1.35 4.525 1.375 5.753.454.202 1.534.324 5.188.324 3.27 0 6.51 1.868 8.543 1.868h10.667c1.004 0 1.706-2.502.55-3.66-.71.48-1.505.86-2.405 1.102" class="I"/><path d="M171.792 391.146c.976 15.696-2.045 20.023-2.812 29.06-.78 9.173 1.512 43.86 1.512 43.86s5.616 1.526 10.228 0l15.455-115.628-27.954-2.444 3.57 45.155" class="K"/><path d="M171.792 391.146c.976 15.696-2.045 20.023-2.812 29.06-.78 9.173 1.512 43.86 1.512 43.86s2.354.637 5.267.67c-1.02-12.902-3.355-24.96 2.13-35.762 1.742-3.427 2.408-13.396 2.408-17.496 0-8.255-2.318-22.316 1.26-33.998 1.368-4.464 1.778-30 1.778-30l-15.116-1.476 3.57 45.155" class="J"/><path d="M179.272 349c-.472 1.397-.194 3.272.443 4.936 1.642 4.29 17.683 45.407 17.453 49.244-.868 14.656 8.428 28.274 15.836 61.258 2.83.986 8.356 1.778 11.074-1.246-1.598-17.827-16.168-104.033-17.73-113.375-.166-.104-19.638 1.807-27.076-.817" class="K"/><path d="M212.375 430.633c-2.246-5.242-7.675-16.2-8.878-21.72-1.393-6.4-.846-24.523-2.12-30.24-.857-3.848-1.177-7.848-3.096-11.174-1.292-2.246-3.236-3.672-4.576-5.832-2.22-3.6-2.52-6.336-1.76-9.778-4.986-.89-9.86-1.908-12.672-2.902-.475 1.397-.198 3.272.44 4.936 1.645 4.29 17.683 45.4 17.456 49.244-.868 14.656 8.428 28.278 15.836 61.26 1.61.558 3.924 1.483 5.958.86-1.872-5.375-2.318-13.118-3.254-17.964-1.174-6.095-.93-11.088-3.334-16.693" class="J"/><path d="M206.915 297.022c0-4.385-9.53-17.67-15.174-21.2-5.648-3.514-7.68-5.573-14.857-4.295-7.794 1.393-6.246 12.834-6.246 35.34 0 1.775-3.61 40.35-4.162 43.618 6.275 4.385 34.704 4.493 41.8 2.077 0-19.616-3.125-33.876-3.125-43.135 0-3.215 1.764-5.59 1.764-12.416" class="B"/><path d="M176.885 271.537c-8.13 2.254-6.246 12.834-6.246 35.34 0 1.778-3.61 40.35-4.165 43.62 2.693 1.88 9.457 2.912 16.862 3.294 0-8.892-6.278-12.15-6.278-19.955 0-4.82 5.807-9.918 5.447-13.74-.684-7.2-2.412-25.322.832-36.076 1.03-3.413-3.935-13.18-6.45-12.485" class="H"/><path d="M169.613 470.884l1.688 4.298h6.7s-.634-1.213-.46-2.016l-7.938-2.282z" class="I"/><path d="M182.584 280.404a7.52 7.52 0 0 0 2.83 10.044c7.776 4.568 20.38 11.052 29.873 12.84l4.205-8.424c-3.888-1.933-14.353-10.397-26.5-17.424-3.68-2.13-8.4-.785-10.408 2.963" class="B"/><path d="M258.445 283.473c-2.812.893-1.282-2.088-3.52-1.037-2.426 1.138-4.45 2.678-5.778 5.414-.626 1.29-22.8 5.62-32.746 6.69-3.41.367-4.648 6.74-2.484 8.16 5.458 3.586 28.534-5.58 35.528-7.693 5.342-1.61 8.258-3.128 10.246-3.686 1.86-.522 2.646-1.38 2.07-2.736.943-.443 1.4-1.526.87-2.498 1.03-.443 1.022-1.634.39-2.218 1.66-.684 3.63-1.43 2.78-2.56-.677-.904-5.692 1.638-7.355 2.164" class="E"/><path d="M242.337 289.84c-4.885 2.174-17.345 2.398-27.292 3.467-3.41.364-3.93 8.125-1.768 9.547 5.414 3.56 25.434-3.053 32.58-5.245-1.246-1.645-2.405-6.06-2.696-8.078-.277.097-.558.19-.824.3" class="B"/><path d="M244.27 294.47c-8.348 4.774-17.575 6.376-26.644 4.133-.73-.18-3.794-1.148-4.54-1.44l-.857-.346c-9.6-3.82-21.42-8.38-28.004-16.14-.176-.21-1.7-2.603-1.883-2.812-.922-1.56-3.798 8.7-.306 10.74 7.243 4.252 22.036 12.002 31.237 14.245 5.418 3.56 25.44-3.053 32.584-5.242-.53-.698-1.037-1.9-1.472-3.204-.04.022-.086.047-.115.065" class="H"/><g class="E"><path d="M255.05 280.868l-4.007 4.237 3.218-.317c.914-.54 2.08-1.56 2.67-2.992 1.822-.774 2.57-2.092 2.174-3.474-2.034 1.588-3.118 2.077-4.057 2.545m-6.633-42.437c-.317-.238-.878-.022-1.264.673l-2.02 4.046c-.778 1.742.194 1.9.958.796.986-1.415 1.645-2.47 2.437-4.04.446-.882.194-1.246-.112-1.476m.33 3.38c-.518-.32-1.098-.115-1.476.583l-2.606 4.788c-.9 1.685.01 1.84.864.817 1.1-1.328 2.37-3.175 3.276-4.676.508-.846.266-1.3-.058-1.512m-.33 2.695l-2.534 4.007c-.87 1.47.047 1.818.878.947 1.08-1.138 2.308-2.732 3.186-4.04.497-.738.248-1.112-.065-1.375-.324-.27-1.098-.15-1.465.46"/><path d="M250.8 245.848c-.37-.14-.745-.328-1.112.284l-1.54 2.786c-.86 1.48.025 1.67.857.8 1.08-1.14 1.073-1.282 1.95-2.588.497-.734.166-1.16-.155-1.282m18.553 33.638c-1.663.48-4.255 1.3-5.854 2.023-.904.403.475.425.57.796.097.4-.594 1.314.14 1.012 1.868-.763 3.578-1.692 5.382-2.606 1.703-.864 1.037-1.595-.238-1.224"/></g><path d="M523.056 379.888l3.035-13.993s-4.68-10.264-9.342-9.875c-4.67.392-7.416 1.68-7.416 1.68s2.408-6.81-3.12-11.8-19.606-10.523-31.734-17.136l-.014-.01s.004.01.018.032c.5.734 9.572 14.584 12.39 32.044 3.085 19.11 29.282 2.336 30.82 50.782.644 20.534-8.806 28.05-8.006 39.344.187 2.624.925 5.458 2.466 8.698 0 0 23.67-35.72 16.92-82.48l-6.016 2.714z" class="G"/><path d="M474.482 422.646s9.63-7.297 14.576 3.748c8.752 19.54 15.185 35.212 21.56 35.212 18.842 0 .785-41.692-4.687-47.585-11.6-12.5-31.45 8.626-31.45 8.626" class="B"/><path d="M491.363 366.705c.508 1.92-2.83 8.413-2.83 8.413s-3.362-9.212-5.105-11.556c-1.714-2.31-23.933-5.357-24.628-5.447 5.04 6.044 5.67 11.02 5.67 11.02s-7.625-11.264-19.238-10.627-26.964-5.782-26.964-5.782l.06.06c21.7 25.614 25.474 25.747 38.94 33.56 13.482 7.826 28.2 9.702 36.1 15.552 11.156 8.287 16.668 17.932 19.292 26.406 2.408 7.726 2.408 14.472 2.113 18.277-.007.01-.007.022 0 .032-.137 1.7-.335 2.815-.392 3.146.173-.652.328-1.3.482-1.948l-.004-.01c13.63-57.172-24-82.994-23.5-81.097" class="D"/><path d="M588.115 427.16c-41.368-13.014-72.792 22-72.792 22l8.636 7.53c2.78-11.6 32.558-25.805 53.9-25.805 24.772 0 42.134 21.215 42.134 21.215-7.416-14.918-24.206-22.54-31.878-24.952" class="B"/><path d="M586.733 441.91c-36.126-16.64-67.98 15.404-67.98 15.404l6.57 5.962c6.4-10.498 33.786-20.336 51.764-18.562 22.4 2.214 36.014 24.872 36.014 24.872-5.238-15.502-19.67-24.592-26.37-27.677" class="D"/><path d="M538.268 399.495c-5.994 7.085-37.32 62.11-15.85 62.11 7.355 0 23.68-29.7 33.142-42.725 8.208-11.304 17.615-11.2 17.615-11.2s-22.187-23.202-34.906-8.176" class="G"/><path d="M492.792 446.763c7.272 5.058 8.87 12.226 1.616 16.513h25.762c-8.723-27.44-27.378-16.513-27.378-16.513" class="B"/><path d="M484.477 439.63c-1.03-.562-15.343-3.546-24.96 2.71-11.815 7.697-13.824 21.877-6.314 37.548.022.054.054.108.076.166 0 0 20.207-8.496 32.825-26.698 11.844-17.09 32.465-1.066 33.887 9.918h5.335c-2.102-5.353-13.28-29.693-40.85-23.645" class="D"/><path d="M459.518 442.34c-11.894 7.574-13.824 21.877-6.314 37.548.684-6.394-.72-17.33 7.398-29.272 3.57-5.245 12.46-10.138 22.69-11.354-3.47-1-13.986-3.146-23.774 3.078" class="G"/><path d="M483.945 405.4s-5.95-6.095-17.107-.738-11.55 20.146-4.014 30.658c0 0 14.288-3.575 21.272-14.443 7-10.86 22.54-6.167 22.54-6.167s-6.5-14.177-22.7-9.3m97.804-17.363c-13.14-5.584-19.68 1.757-19.68 1.757s15.26-.67 25.934 33.376c8.13-12.52 6.9-29.545-6.253-35.132" class="D"/><g transform="translate(417.8 351.82)"><mask id="y" class="C"><use xlink:href="#a"/></mask><path d="M39.474 34.524C52.956 42.354 67.68 44.23 75.57 50.08h0C86.728 58.367 92.24 68.01 94.86 76.486h0c-8.485-53.842-32.213-51.22-51.714-52.808h0C22.22 21.956 1.79 2.196.533.965h0c21.697 25.618 25.47 25.75 38.94 33.56" fill="url(#b)" mask="url(#y)"/></g><path d="M836.423 164h-35.798c.8 6.49-7.243 13.76-9.89 19.465-2.743 5.897-3.77 25.17 28.066 25.17s30.97-19.818 27.464-25.17c-3.445-5.263-10.65-12.974-9.842-19.465" class="H"/><path d="M844.866 181.435c.824 4.853.24 10.97-4.62 14.108-10.314 6.667-21.79.86-28.008-7.718-1.278-1.768-5.252 7.013-5.252 7.013s-8-17.672-.644-30.848h-5.717c.8 6.49-7.243 13.763-9.893 19.47-2.74 5.893-3.766 25.17 28.07 25.17s30.97-19.822 27.464-25.17a51.48 51.48 0 0 0-1.4-2.023" class="B"/><path d="M814.21 369.39c-.27 3.438-1.25 6.275-1.447 9.13-.205 2.992.378 6.008.522 9.896.396 4.14-1.47 7.308-2.182 10.872-3.643 18.176.216 29.286-3.77 43.146-1.3 4.522-2.67 6.11-3.348 8.06-.914 2.64-.06 5.85-1.015 11.077-1.23 6.768-4.532 13.622-3.406 17.406 1.066 3.582 9.338 7.056 12.427 7.056 3.694 0 1.894-4.262 1.72-6.898-.277-4.176 1.22-27.904 2.606-33.106 4.007-15.055 13.043-37.526 14.864-51.833 1.728-13.565.6-16.128 3.665-32.047.36-1.843 6.872-44.543 7.394-61.736l-27.742 13.993c.648 16.614 1.076 37.66-.292 54.983" class="F"/><path d="M826.887 356.545c3.434 14.5.18 28.86-4.248 42.93-4.954 15.743-7.02 34.895-10.274 44.14-4.226 12-.752 14-6.955 24.995-5.843 10.372 5.036 17.428 6.584 17.428 3.694 0 1.894-4.266 1.72-6.898-.277-4.176 1.22-27.904 2.606-33.11 4.007-15.052 13.043-37.523 14.864-51.833 1.728-13.565.6-16.128 3.665-32.044.36-1.847 6.872-44.543 7.394-61.74l-18.958 9.562c2.804 15.473-.025 31.266 3.6 46.57" class="E"/><g transform="translate(799.2 465.82)"><mask id="z" class="C"><use xlink:href="#c"/></mask><path d="M.366 13.156c1.066 3.586 9.342 7.063 12.43 7.063h0c3.7 0 1.9-4.27 1.717-6.9h0c-.054-.792-.036-2.293.025-4.23h0c-.6 2.837-6.235 4.363-8.964.634h0c-1.782-2.437-2.47-5.663-2.96-8.446h0c-.022-.122-.065-.23-.1-.35h0c-1.4 4.907-2.995 9.418-2.16 12.23" fill="url(#d)" mask="url(#z)"/></g><path d="M805.77 477.26a3.48 3.48 0 0 1-.126-.828 4.9 4.9 0 0 1-.868-.896c-1.782-2.434-2.47-5.66-2.963-8.438-.018-.122-.065-.234-.1-.353-1.386 4.907-2.995 9.418-2.16 12.233 1.066 3.582 9.342 7.06 12.43 7.06 1.627 0 2.164-.85 2.264-2.005-1.314.223-6.948-1.325-8.49-6.772" class="I"/><g class="E"><path d="M840.306 206.81c-2.974-.706-8.74-2.37-12.258-3.737-6.09-2.358-5.026-7.715-3.625-15.257l-11.254-3.967c-1.076 8.035.78 17.208-7.5 14.936-9.875-2.707-14.59-.864-17.68 12.09l45.706 21.506c0 8.964 3.607 17.327 5.735 24.7l9.576-3.823c-1.058-10.278-3.28-45.17-8.7-46.458"/><path d="M772.85 241.995l7.682 7.225c5.08-6.415 19.055-38.37 19.055-38.37l-13.046-5.46c-6.548 11.052-11.264 30.683-13.69 36.605"/></g><path d="M793.096 208.663c-1.267 4.525-10.066 1.807-11.873 8.212-.688 2.44 1.84 7.182 2.732 9.256.457 1.058 1.25 10.4-2.027 16.56-.673 1.264-4.738 1.958-5.67 2.5l4.273 4.02c5.08-6.42 19.055-38.372 19.055-38.372l-6.404-2.682c-.036.17-.04.328-.086.497m12.574-9.88c-5.443-1.494-9.313-1.584-12.215.788 2.326-.724 4.87-.925 7.027-.662 3.32.403 5.94 3.712 8.813 4.064 5.32.655 11.358-6.422 14.396-10.998a147.84 147.84 0 0 1 .73-4.162l-11.254-3.964c-1.076 8.028.78 17.208-7.5 14.933m32.923 34.714c-.313.526-3.384 3.6-4.8 4.1.248 6.908 3.935 13.565 5.64 19.483l3.68-.774c-1.325-5.108-4.075-11.693-4.223-17.255-.05-1.92-.176-3.762-.3-5.566" class="F"/><path d="M821.524 153.757c-4.104-.587-7.272-.032-9.713 1.3-5.076 2.754-6.912 8.92-6.876 15.656a14.2 14.2 0 0 0 .014.781c0 .238.018.482.018.724.022.33.022.662.054 1.004.104 1.472.223 2.8.364 4.003.346 2.75.814 4.882 1.577 6.682.95 2.304 7.3 10.548 12.312 10.4 4.604-.155 10.822-7.945 11.83-9.745 1.192-2.185 1.76-4.486 2.06-6.966.223-1.764.292-3.618.378-5.594v-.065l.036-1.386c.018-7.913-2.718-15.466-12.053-16.783m10.043 302.825c-.677-1.95-2.228-1.548-3.524-6.073-3.985-13.856.05-26.957-3.593-45.137-.716-3.56-2.578-6.732-2.182-10.868.148-3.888.727-6.905.522-9.9-.202-2.85-1.177-5.688-1.447-9.13-.875-11.074-1.015-15.462-.835-31.55.274-24.3 2.218-35.842-6.617-54.047l-18.4.068-2.17 16.553c.572 18.828 3.787 38.336 7.902 59.652 3.074 15.92 2.185 22.216 3.9 35.777 1.822 14.306 16.48 54.695 16.92 60.2.122 1.494.44 20.542.738 23.108.302 2.624-.007 8.924 3.57 8.924 3.1 0 8.867-6.682 9.637-9.097 1.202-3.762-2.17-10.634-3.406-17.402-.954-5.23-.1-8.446-1.015-11.077" class="E"/><g transform="translate(822.2 473.02)"><mask id="AA" class="C"><use xlink:href="#e"/></mask><path d="M3.426 12.076c-1.267 0-2.135-1.4-2.988-2.153h0l.14 2.304c.302 2.62-.004 8.92 3.57 8.92h0c3.092 0 8.87-6.678 9.64-9.097h0c.882-2.758-.702-7.204-2.1-12.046h0c-.212.896-1.894 12.07-8.266 12.07" fill="url(#f)" mask="url(#AA)"/></g><path d="M827.73 486.887c-.126-.824-.13-1.555-.054-2.228-.623.27-1.3.44-2.048.44-1.267 0-2.138-1.4-2.988-2.156l.14 2.304c.302 2.62-.004 8.92 3.575 8.92 2.012 0 5.162-2.837 7.326-5.48-.55.26-1.112.48-1.678.63-1.656.436-3.99-.55-4.273-2.43" class="I"/><path d="M786.94 270.532c-.122.778-1.7 14.036-1.786 14.764-2.73 24.278 6.458 57.75 13.13 89.856 16.492 5.5 39.805-.96 39.805-.96s10.447-49.58 10.447-74.3c0-16.942-9.583-26.99-10.508-32.328-12.182 7.042-45.57 4.378-51.088 2.96" class="G"/><path d="M811.707 358.338c-1.753-6.34-5.1-18.18-4.5-24.725 1.278-14.1-17.32-22.028-10.75-28.073 3.05-2.804 11.916-6.898 14.177-11.383 1.804-3.582-5.533-20.97-5.533-20.97l-18.202-2.354-1.742 14.46c-2.732 24.275 6.455 57.75 13.126 89.856 12.517 4.176 28.948 1.465 36.148-.086-6.224-7.708-20.03-6.995-22.723-16.726" class="D"/><path d="M832.874 204.23l-14.072 4.4s-7.1-5.904-12.002-10.328c0 0-12.236-7.294-24.577 8.597-1.4 1.804 6.97 5.026 5.904 14.177-1.79 15.42-5.868 44.816-1.717 49.738 3.924 4.65 50.735 6.293 52.078-1.642.785-4.662-3.416-7.045-4.71-12.337-.918-3.762-.576-7.898.583-14.897 3.035-2.48 8.748-5.742 5.742-13.896-2.185-5.922 9.047-5.735 8.478-10.148-1.692-13.165-15.707-13.662-15.707-13.662" class="G"/><path d="M795.125 233.888c.695-2.808-.6-6.03-2.16-8.327-1.177-1.746 4.35-1.52 7.398-3.276 1.948-1.116 5.724-5.22 8.575-1.814 3.326 3.978-1.3 8.29 5.407 11.966 5.778 3.157 2.016 8.154-2.4 8.903-4.9.828-8.723-5.43-10.872-4.02-3.744 2.448-7.034.914-5.958-3.43m2.178 26.7c-3.5-2.678-1.13-5.234 2.426-2.516 3.935 3.002 15.455 7.826 15.455 2.963 0-11.46 10.804-18.806 13.68-22.014 2.725-3.046-7.56-13.324-2.725-16.286.374-.227.96-1.674.907-2.264-.425-4.723 4.17-4.658 1.27-7.506-2.923-2.876-4.824-1.57-8.543-.536-7.902 2.2-30.582-.508-31.648 8.644-1.79 15.422-5.868 44.82-1.717 49.74 3.082 3.65 32.562 5.447 45.763 2.214-2.66-1.156-7.193-2.156-10.048-2.192-11.804-.162-18.3-5.263-24.822-10.246" class="D"/><path d="M819.205 182.07c-1.336.043-2.614.623-2.704.86-.223.565.655.738 1.152.756a6.08 6.08 0 0 1 .835.108 2.85 2.85 0 0 0 1.282-.047c.256-.072.63-.144.828-.162.493-.054 1.476-.36 1.094-.84-.252-.317-1.246-.716-2.488-.677m2.32-30.073c-4.104-.6-7.272-.036-9.713 1.296-5.076 2.754-6.912 8.92-6.876 15.656.864-2.664 2.408-5.936 5.108-8.122 0 0 4.504 4.33 10.408 6.67 0 0-3.654-5.526-4.35-7.776.418.256 6.912 4.55 17.06 16.103.223-1.786.292-3.668.378-5.663.35-8.4-2.146-16.78-12.017-18.166" class="F"/><path d="M819.295 145.16c-8.496 0-11.668 7.106-11.668 7.106s-6.023 1.206-7.045 6.72c-.882 4.748.983 9.6 4.446 13.288 0 0 .875-8.32 6.113-12.542 0 0 4.496 4.327 10.404 6.674 0 0-3.683-5.566-4.363-7.794 0 0 7.24 4.576 18.594 17.888-.724-5.8.648-8.622.648-15.217 0-7.528-6.502-16.124-17.13-16.124" class="H"/><path d="M814.345 156.58c1.372 4.255 4.806 8.878 7.2 9.828 0 0-3.683-5.562-4.363-7.794 0 0 7.24 4.576 18.594 17.888-.014-.12-8.514-19.922-21.43-19.922m-12.876 0c-.396.695-.716 1.487-.886 2.408-.886 4.748.98 9.6 4.446 13.288 0 0 .227-2.135 1.127-4.792-4.86-1.274-6.42-6.84-4.687-10.904" class="B"/><path d="M810.805 179.354c-2.963.1-5.454-1.994-5.54-4.676-.086-2.232 1.487-3.222 5.263-3.36 3.758-.14 5.404.76 5.472 2.977.104 2.686-2.232 4.954-5.195 5.058m16.434-.572c-2.963.104-5.436-2.012-5.544-4.676-.068-2.232 1.508-3.236 5.267-3.36.8-.025 1.483 0 2.095.068-.198-.223-.37-.457-.544-.695l-1.57-.032c-1.99.068-4.486.4-5.472 2.113l.018-.05c-.227.3-1.022.5-1.23.5-.19.018-.986.032-1.454.05l-1.472.054c-.187 0-1-.122-1.264-.432l.018.065c-1.09-1.642-3.582-1.8-5.59-1.728-1.127.036-2.408.173-3.5.6.032-.018.054-.036.086-.058-.587.14-1.5.245-2.13.3l.018.727.054 1.004.36 4c1.073 1.735 3.118 2.876 5.436 2.8 3.2-.108 5.717-2.495 5.82-5.37l.014.086c.367-.814 1.544-1.09 2.185-1.11.623-.018 1.818.155 2.236.954l.014-.086c.313 2.855 2.98 5.058 6.18 4.95 2.772-.1 5.04-1.92 5.663-4.295v.104c.022-.047.032-.104.043-.158-.212-.238-.396-.497-.572-.76-.256 2.408-2.434 4.356-5.166 4.453" class="F"/><g class="C"><path d="M827.755 178.264c-2.963.1-5.45-1.994-5.544-4.676-.08-2.22 1.498-3.222 5.263-3.355s5.407.756 5.483 2.98c.097 2.682-2.24 4.946-5.202 5.05m-.302-8.694c-2.592.086-6.026.608-5.908 4.043.108 3.046 2.905 5.432 6.235 5.317 3.326-.122 5.95-2.693 5.843-5.738-.12-3.434-3.582-3.712-6.17-3.622"/><path d="M833.672 170.002c-.44.014-1.962.025-2.815-.148 0 0 1.012.4 1.897 1.454.695.835.688 3.42.688 3.42.335-.9.374-2.102.356-2.6s.097-.634.328-.66.252-.148.248-.277l-.032-.96c-.007-.202-.223-.234-.67-.22m-22.362 8.826c-2.963.1-5.45-1.994-5.544-4.676-.076-2.218 1.498-3.222 5.263-3.355s5.407.76 5.483 2.98c.097 2.682-2.24 4.95-5.202 5.05m-.302-8.694c-2.592.086-6.026.608-5.908 4.043.108 3.05 2.905 5.432 6.232 5.317s5.954-2.7 5.846-5.738c-.122-3.434-3.578-3.712-6.17-3.622"/><path d="M804.18 171.275l.036.965c.004.13.036.245.266.256s.356.126.374.634.137 1.717.536 2.578c0 0-.2-2.574.446-3.456.8-1.116 1.8-1.588 1.8-1.588-.832.238-2.354.33-2.797.35s-.655.058-.652.263m15.133.916l-1.465.054c-.198.007-1.012-.126-1.26-.428l.587 2.398c.364-.814 1.537-1.084 2.17-1.105s1.818.162 2.24.954l.418-2.434c-.223.32-1.03.504-1.224.508l-1.465.054"/></g><g class="E"><path d="M838.794 255.087c-11.69 2.03-20.056 7.355-26.302 7.7-1.465.08-2.88.565-4.22-.443-2.84-2.138-5.846-2.03-8.982-1.922-2.887.1.292 2.4-3.1 2.96-2.012.335-8 .644-8.154 1.44-.317 1.624 1.508 1.577 3.6 1.408-.35.943.277 2.185 1.588 2.1-.022 1.292 1.022 2.178 2.236 2.142.126 1.717 1.397 2.192 3.61 1.742 2.365-.48 6.2-.45 12.632-1.616 8.413-1.526 10.102-.392 16.218-.925 6.008-.53 15.2-1.228 20.2-4.835 1.782-1.282 1.786-6.92.806-12.492-4 .835-6.17 2.07-10.123 2.754"/><path d="M791.8 257.77c.32 1.65 1.804 2.624 4.1 2.462.817.774 1.375 1.67 1.948 2.113l6.044-1.8-6.527-2.28c-1.224.018-2.614.083-5.576-.486m-20.72-15.197c-10.17 7.196-31.504 22.806-34.816 21.578-3.55-1.318-6.653-1.235-9.857-.295-2.956.864.93 2.387-2.434 3.866-1.987.878-8.078 2.783-8.028 3.643.098 1.757 1.97 1.228 4.08.5-.108 1.07.868 2.182 2.192 1.75.317 1.336 1.627 1.98 2.873 1.616.58 1.742 2.016 1.897 4.187.85 2.315-1.12 6.286-2.1 12.604-4.997 8.276-3.794 31.158-8.798 39.647-21.946 1.753-2.7-6.962-9.032-10.447-6.566"/></g><path d="M778.97 244.358c-1.498.842-5.108 4.028-5.692 4.468-4.925 3.708-9.44 7.913-15.044 10.375-5.645 2.477-13.118 7.91-18.806 10.3-1.822.77-5.062-.335-7.938-1.45-1.786-.69-3.697-.943-5.594-.677-.842.12-1.494.15-1.92.338-1.987.878-8.082 2.783-8.032 3.643.1 1.757 1.973 1.228 4.083.5-.112 1.066.864 2.182 2.19 1.75.32 1.336 1.627 1.98 2.873 1.616.58 1.742 2.016 1.897 4.187.85 1.38-.666 10.055-3.83 12.607-4.997 8.276-3.794 31.158-8.802 39.647-21.946 1.368-2.117-.98-3.93-2.56-4.78" class="F"/><path d="M719.115 263.458c.763 1.613 2.552 2.232 4.89 1.454 1.732.853 3.236 1.27 4.536 1.022l3.7-2.786-7.232-.66c-1.26.338-2.675.774-5.882.968" class="E"/><path d="M739.24 274.5l.662-4.64-111.467-13.644z" class="B"/><path d="M722.382 269.027l-5.37 1.678c-.936.33-1.314.976-1.084 1.415.227.428.623.806 1.796.432 2.088-.66 3.514-1.256 5.454-2.196 1.5-.716 1.505-1.94-.796-1.328m5.05.22l-6.826 2.642c-.936.328-.868.853-.594 1.3.27.44.706.82 1.847.367 2.03-.814 4.547-1.994 6.4-3.092 1.433-.846 1.418-1.998-.828-1.228m1.394 1.776l-5.868 2.624c-.824.324-.688.95-.418 1.404.26.436.67.817 1.674.356 1.782-.824 3.985-2.016 5.598-3.114 1.242-.853.997-2.048-.986-1.27m1.96 2.04l-5.2 2.128c-.824.33-.734.85-.468 1.303.26.44.673.817 1.678.356 1.782-.82 3.175-1.472 4.792-2.574 1.238-.846 1.17-1.994-.8-1.213" class="E"/><g class="H"><path d="M798.63 261.785v.01c0 1.217.994 2.2 2.2 2.2h51.98c1.217 0 2.2-.994 2.2-2.2l-56.4-.01z"/><path d="M793.018 215.948c-.5-1.786-2.138-3-3.99-2.96l-31.892-.014v50.476l44.042.558c2.696 0 2.855-2.084 2.675-2.812l-10.836-45.248z"/></g><path d="M623.954 460.484s4.352-3.3 6.592 1.696c3.964 8.838 6.872 15.93 9.752 15.93 8.528 0 .36-18.86-2.117-21.528-5.252-5.652-14.227 3.902-14.227 3.902" class="B"/><path d="M631.6 435.18c.227.868-1.278 3.81-1.278 3.81s-1.523-4.172-2.31-5.23c-.774-1.044-10.825-2.42-11.142-2.46 2.282 2.732 2.567 4.982 2.567 4.982s-3.45-5.094-8.705-4.8c-5.256.292-12.197-2.614-12.197-2.614l.03.03c9.814 11.585 11.52 11.646 17.615 15.18s12.762 4.388 16.33 7.034c5.047 3.748 7.542 8.11 8.726 11.945 1.09 3.492 1.09 6.545.958 8.266-.06.788-.15 1.292-.176 1.44.08-.295.148-.6.22-.882l-.004-.004c6.167-25.862-10.858-37.544-10.63-36.688" class="D"/><path d="M675.357 462.527c-18.713-5.886-32.926 9.958-32.926 9.958l3.902 3.406c1.26-5.25 14.728-11.67 24.383-11.67 11.207 0 19.062 9.598 19.062 9.598-3.355-6.75-10.95-10.195-14.422-11.3" class="B"/><path d="M632.652 431.26c-2.78-6.246-8.384-12.9-8.698-13.234.22.335 4.327 6.6 5.605 14.5 1.393 8.64 13.244 1.055 13.94 22.968.295 9.292-1.77 13.504-1.41 18.612 1.9-4.6 4.064-17.36 2.765-26.456-1.642-11.502-8.968-9.115-12.2-16.39" class="G"/><g class="D"><path d="M674.732 469.2c-16.344-7.528-30.75 6.973-30.75 6.973l2.974 2.696c2.887-4.752 15.282-9.202 23.418-8.4 10.13 1 16.286 11.254 16.286 11.254-2.37-7.016-8.896-11.128-11.927-12.524"/><path d="M652.807 450.01c-2.71 3.208-16.88 28.098-7.168 28.098 3.326 0 10.7-13.435 15-19.325 3.715-5.112 7.967-5.076 7.967-5.076s-10.037-10.494-15.8-3.697"/></g><path d="M632.235 471.397c3.3 2.3 4.014 5.526.734 7.47h11.65c-3.942-12.413-12.384-7.47-12.384-7.47" class="B"/><path d="M628.476 468.17c-.464-.256-6.94-1.606-11.3 1.228-5.346 3.48-6.257 9.896-2.858 16.985.01.022.025.047.036.072 0 0 9.14-3.84 14.846-12.074 5.36-7.733 14.688-.482 15.33 4.49h2.416c-.95-2.426-6.008-13.435-18.48-10.7" class="D"/><g transform="translate(612.2 467.02)"><mask id="AB" class="C"><use xlink:href="#g"/></mask><path d="M4.986 2.376C-.396 5.8-1.27 12.272 2.128 19.36h0c.3-2.89-.328-7.84 3.348-13.24h0C7.088 3.744 11.1 1.534 15.74.98h0c-.73-.21-2.156-.533-3.917-.533h0c-2.016 0-4.475.425-6.836 1.93" fill="url(#h)" mask="url(#AB)"/></g><path d="M628.235 452.68s-2.693-2.758-7.736-.335c-5.05 2.426-5.227 9.112-1.818 13.87 0 0 6.462-1.616 9.626-6.534 3.157-4.9 10.192-2.8 10.192-2.8s-2.934-6.412-10.264-4.212m44.245-7.84c-5.944-2.524-8.906.8-8.906.8s6.908-.306 11.732 15.1c3.68-5.66 3.12-13.363-2.826-15.9" class="D"/><g transform="translate(597.8 428.62)"><mask id="AC" class="C"><use xlink:href="#i"/></mask><path d="M18.367 15.446c6.098 3.542 12.762 4.385 16.33 7.034h0c5.05 3.748 7.542 8.11 8.726 11.945h0c-3.838-24.354-14.573-23.17-23.393-23.9h0C10.562 9.762 1.325.82.752.265h0c9.814 11.585 11.524 11.65 17.615 15.18" fill="url(#j)" mask="url(#AC)"/></g></g></svg>